<svg width="1440" height="667" viewBox="0 0 1440 667" fill="none" xmlns="http://www.w3.org/2000/svg">
<line x1="1414.96" y1="2.99453e-08" x2="1414.96" y2="638" stroke="#303030"/>
<line x1="1315.7" y1="2.99453e-08" x2="1315.7" y2="638" stroke="#303030"/>
<line x1="1216.44" y1="2.99453e-08" x2="1216.44" y2="638" stroke="#303030"/>
<line x1="1117.18" y1="2.99453e-08" x2="1117.18" y2="638" stroke="#303030"/>
<line x1="1017.92" y1="2.99453e-08" x2="1017.92" y2="638" stroke="#303030"/>
<line x1="918.654" y1="2.99453e-08" x2="918.654" y2="638" stroke="#303030"/>
<line x1="819.396" y1="2.99453e-08" x2="819.396" y2="638" stroke="#303030"/>
<line x1="720.137" y1="2.99453e-08" x2="720.137" y2="638" stroke="#303030"/>
<line x1="620.875" y1="2.99453e-08" x2="620.875" y2="638" stroke="#303030"/>
<line x1="521.615" y1="2.99453e-08" x2="521.615" y2="638" stroke="#303030"/>
<line x1="422.355" y1="2.99453e-08" x2="422.355" y2="638" stroke="#303030"/>
<line x1="323.096" y1="2.99453e-08" x2="323.096" y2="638" stroke="#303030"/>
<line x1="223.836" y1="2.99453e-08" x2="223.836" y2="638" stroke="#303030"/>
<line x1="124.575" y1="2.99453e-08" x2="124.575" y2="638" stroke="#303030"/>
<line x1="25.3154" y1="2.18557e-08" x2="25.3154" y2="638" stroke="#303030"/>
<line x1="3.35714e-08" y1="468.235" x2="1440" y2="468.235" stroke="#303030"/>
<line x1="3.35714e-08" y1="311.99" x2="1440" y2="311.99" stroke="#303030"/>
<line x1="3.35714e-08" y1="155.745" x2="1440" y2="155.745" stroke="#303030"/>
<line x1="4.37114e-08" y1="-0.5" x2="1440" y2="-0.499874" stroke="#303030"/>
<rect x="18.9766" y="443" width="1401.32" height="224" fill="url(#paint0_linear_1_20)"/>
<defs>
<linearGradient id="paint0_linear_1_20" x1="719.635" y1="443" x2="719.635" y2="667" gradientUnits="userSpaceOnUse">
<stop stop-color="#272727" stop-opacity="0"/>
<stop offset="1" stop-color="#222222"/>
</linearGradient>
</defs>
</svg>
